<svg xmlns="http://www.w3.org/2000/svg" width="400" height="320" viewBox="0 0 400 320"><defs>
<linearGradient id="white" x1="0" x2="1"><stop stop-color="#d8dacc"/><stop offset=".18" stop-color="#fffef2"/><stop offset=".46" stop-color="#f4f3e7"/><stop offset=".72" stop-color="#d8ddce"/><stop offset=".9" stop-color="#faf9ed"/><stop offset="1" stop-color="#ced4c3"/></linearGradient>
<linearGradient id="green" x1="0" x2="1"><stop stop-color="#173f31"/><stop offset=".2" stop-color="#5c7750"/><stop offset=".48" stop-color="#354e32"/><stop offset=".8" stop-color="#59794b"/><stop offset="1" stop-color="#203e2b"/></linearGradient>
<linearGradient id="black" x1="0" x2="1"><stop stop-color="#28342c"/><stop offset=".25" stop-color="#657262"/><stop offset=".52" stop-color="#394738"/><stop offset=".8" stop-color="#596552"/><stop offset="1" stop-color="#202d25"/></linearGradient>
<linearGradient id="yellow" x1="0" x2="1"><stop stop-color="#b5a16c"/><stop offset=".3" stop-color="#e0d2a2"/><stop offset=".65" stop-color="#c4b77f"/><stop offset="1" stop-color="#a8955f"/></linearGradient>
<linearGradient id="blue" x1="0" x2="1"><stop stop-color="#8daaa4"/><stop offset=".3" stop-color="#c3d9d0"/><stop offset=".65" stop-color="#a0bfb5"/><stop offset="1" stop-color="#6c938a"/></linearGradient>
<linearGradient id="plastic" x1="0" x2="1"><stop stop-color="#ffffff" stop-opacity=".12"/><stop offset=".15" stop-color="#ffffff" stop-opacity=".72"/><stop offset=".45" stop-color="#dee5d5" stop-opacity=".45"/><stop offset=".76" stop-color="#ffffff" stop-opacity=".85"/><stop offset="1" stop-color="#c4cfba" stop-opacity=".6"/></linearGradient>
<radialGradient id="ground"><stop stop-color="#34482b" stop-opacity=".22"/><stop offset="1" stop-color="#34482b" stop-opacity="0"/></radialGradient>
<filter id="shadow" x="-40%" y="-40%" width="180%" height="180%"><feDropShadow dx="5" dy="12" stdDeviation="9" flood-color="#253e22" flood-opacity=".19"/></filter>
</defs><ellipse cx="205" cy="269" rx="151" ry="31" fill="url(#ground)"/><g transform="translate(113 65) rotate(-15 47.0 101.5)" filter="url(#shadow)"><path d="M0 13 Q47.0 -12 94 13 V191 Q47.0 213 0 191Z" fill="url(#black)"/><ellipse cx="47.0" cy="13" rx="47.0" ry="13" fill="#d0d6c0"/><ellipse cx="47.0" cy="13" rx="36.660000000000004" ry="9" fill="none" stroke="#a7b29a" stroke-width="1.2"/><ellipse cx="47.0" cy="13" rx="25.380000000000003" ry="6" fill="none" stroke="#bbc3a9"/><ellipse cx="47.0" cy="13" rx="9.4" ry="4" fill="#727964"/><path d="M11.75 28 Q8.75 101.5 12.75 189" fill="none" stroke="#ffffff" opacity=".13"/><path d="M23.5 28 Q20.5 101.5 24.5 189" fill="none" stroke="#ffffff" opacity=".13"/><path d="M35.25 28 Q32.25 101.5 36.25 189" fill="none" stroke="#ffffff" opacity=".13"/><path d="M47.0 28 Q44.0 101.5 48.0 189" fill="none" stroke="#ffffff" opacity=".13"/><path d="M58.75 28 Q55.75 101.5 59.75 189" fill="none" stroke="#ffffff" opacity=".13"/><path d="M70.5 28 Q67.5 101.5 71.5 189" fill="none" stroke="#ffffff" opacity=".13"/><path d="M82.25 28 Q79.25 101.5 83.25 189" fill="none" stroke="#ffffff" opacity=".13"/><path d="M0 85.25999999999999 Q47.0 97.44 94 85.25999999999999 V156.31 Q47.0 168.48999999999998 0 156.31Z" fill="#e9e7ce"/><path d="M0 87.28999999999999 Q47.0 99.47 94 87.28999999999999 V97.44 Q47.0 109.62 0 97.44Z" fill="#3e6042"/><text x="47.0" y="121.8" text-anchor="middle" font-family="Arial" font-size="10.81" fill="#365540" font-weight="bold">SADAT</text><text x="47.0" y="136.01000000000002" text-anchor="middle" font-family="Arial" font-size="5.64" fill="#718061" letter-spacing="2">PLAST</text><path d="M28.2 148.19h37.6" stroke="#92a07e"/></g><g transform="translate(211 99) rotate(15 33.0 81.5)" filter="url(#shadow)"><path d="M0 13 Q33.0 -12 66 13 V151 Q33.0 173 0 151Z" fill="url(#green)"/><ellipse cx="33.0" cy="13" rx="33.0" ry="13" fill="#d0d6c0"/><ellipse cx="33.0" cy="13" rx="25.740000000000002" ry="9" fill="none" stroke="#a7b29a" stroke-width="1.2"/><ellipse cx="33.0" cy="13" rx="17.82" ry="6" fill="none" stroke="#bbc3a9"/><ellipse cx="33.0" cy="13" rx="6.6000000000000005" ry="4" fill="#727964"/><path d="M8.25 28 Q5.25 81.5 9.25 149" fill="none" stroke="#ffffff" opacity=".13"/><path d="M16.5 28 Q13.5 81.5 17.5 149" fill="none" stroke="#ffffff" opacity=".13"/><path d="M24.75 28 Q21.75 81.5 25.75 149" fill="none" stroke="#ffffff" opacity=".13"/><path d="M33.0 28 Q30.0 81.5 34.0 149" fill="none" stroke="#ffffff" opacity=".13"/><path d="M41.25 28 Q38.25 81.5 42.25 149" fill="none" stroke="#ffffff" opacity=".13"/><path d="M49.5 28 Q46.5 81.5 50.5 149" fill="none" stroke="#ffffff" opacity=".13"/><path d="M57.75 28 Q54.75 81.5 58.75 149" fill="none" stroke="#ffffff" opacity=".13"/><path d="M0 68.46 Q33.0 78.24 66 68.46 V125.51 Q33.0 135.29 0 125.51Z" fill="#e9e7ce"/><path d="M0 70.09 Q33.0 79.87 66 70.09 V78.24 Q33.0 88.02000000000001 0 78.24Z" fill="#3e6042"/><text x="33.0" y="97.8" text-anchor="middle" font-family="Arial" font-size="7.590000000000001" fill="#365540" font-weight="bold">SADAT</text><text x="33.0" y="109.21000000000001" text-anchor="middle" font-family="Arial" font-size="3.96" fill="#718061" letter-spacing="2">PLAST</text><path d="M19.8 118.99h26.400000000000002" stroke="#92a07e"/></g></svg>